<svg width="117" height="76" viewBox="0 0 117 76" fill="none" xmlns="http://www.w3.org/2000/svg">
<path d="M26.0032 39.092C22.9552 39.092 20.6148 37.6456 18.9819 34.7527C17.213 37.6456 15.0086 39.092 12.3689 39.092C10.6816 39.092 9.19841 38.6459 7.91934 37.7537C6.66748 36.8615 5.68777 35.6314 4.9802 34.0633C3.59228 30.9812 2.89832 27.1421 2.89832 22.546V20.3155H0V19.6667H2.44928C5.5517 19.6667 8.34116 19.4098 10.8177 18.8961V20.6805C10.8177 25.547 11.2531 29.2779 12.1239 31.8734C12.9948 34.4688 14.1786 35.7666 15.6754 35.7666C16.6823 35.7666 17.6076 35.0907 18.4512 33.7389C17.1722 30.9001 16.5326 27.1691 16.5326 22.546V20.3155H13.6343V19.6667H16.0836C19.186 19.6667 21.9755 19.4098 24.452 18.8961V20.6805C24.452 25.547 24.8874 29.2779 25.7583 31.8734C26.6291 34.4688 27.8129 35.7666 29.3097 35.7666C30.6432 35.7666 31.7862 34.6986 32.7387 32.5628C33.6912 30.427 34.1675 28.3858 34.1675 26.4392C34.1675 24.4926 33.8817 22.9651 33.3102 21.8566C32.7387 20.7481 31.9903 20.0587 31.065 19.7883C30.8473 19.7343 30.6977 19.7072 30.616 19.7072C30.3439 19.7072 30.2078 19.8289 30.2078 20.0722C30.2078 20.2615 30.3847 20.4102 30.7385 20.5183C31.827 20.8698 32.3713 21.6403 32.3713 22.8299C32.3713 23.641 32.0856 24.3033 31.5141 24.817C30.9698 25.3037 30.2622 25.547 29.3914 25.547C28.5477 25.547 27.8265 25.2496 27.2278 24.6548C26.6291 24.033 26.3298 23.2354 26.3298 22.2621C26.3298 21.2888 26.6699 20.4913 27.3503 19.8694C28.0307 19.2206 28.9968 18.8961 30.2486 18.8961C31.5005 18.8961 32.589 19.518 33.5143 20.7616C34.4668 21.9782 34.9431 23.7626 34.9431 26.1147C34.9431 29.3591 34.0994 32.333 32.4121 35.0366C30.7521 37.7402 28.6158 39.092 26.0032 39.092Z" fill="#F5F3F0"/>
<path d="M81.3365 36.1721V46.3511H84.3981V47H71.0904V46.3511H73.6213V20.3155H70.723V19.6667H72.9273C74.7779 19.6667 76.2883 19.0313 77.4585 17.7606C78.6287 16.4629 79.2138 14.9895 79.2138 13.3403C79.2138 11.664 78.5334 10.1365 77.1727 8.75767C75.812 7.37883 73.771 6.68942 71.0495 6.68942C68.3281 6.68942 66.219 7.43291 64.7222 8.91988C63.2527 10.4069 62.5179 12.029 62.5179 13.7864C62.5179 15.2193 62.9533 16.4224 63.8242 17.3956C64.314 17.9364 64.695 18.3419 64.9672 18.6123C65.2393 18.8556 65.7428 19.2476 66.4776 19.7883C67.2123 20.329 67.6478 20.6535 67.7838 20.7616L65.008 19.5856L65.0488 19.4639C64.0419 18.9232 63.2391 18.1256 62.6403 17.0712C62.0688 15.9898 61.7831 14.8948 61.7831 13.7864C61.7831 11.7316 62.6267 9.92021 64.314 8.35213C66.0013 6.78404 68.2193 6 70.9679 6C74.2608 6 76.8053 7.01385 78.6015 9.04154C80.4248 11.0422 81.3365 14.3406 81.3365 18.9367V22.4649H81.5406C82.0577 21.1672 82.7653 20.2479 83.6633 19.7072C84.5886 19.1665 85.786 18.8961 87.2556 18.8961C89.8137 18.8961 91.6779 19.8289 92.8481 21.6944C94.0456 23.5598 94.6443 25.966 94.6443 28.913C94.6443 31.8599 93.9639 34.2931 92.6032 36.2127C91.2697 38.1052 89.3239 39.0514 86.7658 39.0514C84.2348 39.0514 82.4931 38.0917 81.5406 36.1721H81.3365ZM81.1732 28.9535V30.0485C81.1732 32.4276 81.4862 34.2796 82.1121 35.6044C82.738 36.9021 83.4592 37.5509 84.2757 37.5509C85.6908 37.5509 86.3984 34.6851 86.3984 28.9535C86.3984 26.0877 86.2487 24.0059 85.9493 22.7082C85.6772 21.3834 85.1193 20.7211 84.2757 20.7211C83.2959 20.7211 82.5339 21.5727 81.9897 23.276C81.4454 24.9792 81.1732 26.8717 81.1732 28.9535ZM67.2123 21.0861C66.8858 20.7616 66.3007 20.4642 65.457 20.1939C64.6406 19.8965 63.6337 19.7478 62.4362 19.7478C61.2388 19.7478 60.2455 20.0181 59.4563 20.5589C58.6671 21.0725 58.2725 21.762 58.2725 22.6271C58.2725 23.4652 58.6671 24.2087 59.4563 24.8576C60.2455 25.4794 61.198 26.0471 62.3138 26.5608C63.4296 27.0475 64.5453 27.5882 65.6611 28.183C66.8041 28.7507 67.7702 29.4807 68.5594 30.3729C69.3486 31.2651 69.7433 32.2789 69.7433 33.4144C69.7433 35.1447 68.8452 36.5236 67.049 37.5509C65.2801 38.5783 62.6131 39.092 59.0481 39.092C57.4424 39.092 55.8096 38.8081 54.1495 38.2404C53.3059 37.943 52.6119 37.4833 52.0676 36.8615C51.5505 36.2127 51.292 35.4151 51.292 34.4688C51.292 33.5226 51.605 32.7115 52.2309 32.0356C52.8568 31.3327 53.6597 30.9812 54.6394 30.9812C55.6191 30.9812 56.4083 31.2651 57.007 31.8328C57.6057 32.3736 57.9051 33.0765 57.9051 33.9416C57.9051 34.8068 57.6465 35.5097 57.1295 36.0504C56.6396 36.5641 56.0273 36.821 55.2925 36.821C54.5849 36.821 53.9726 36.5641 53.4555 36.0504C53.4011 35.9964 53.3603 35.9558 53.3331 35.9288C53.3059 35.8747 53.2786 35.8342 53.2514 35.8071C53.2242 35.7801 53.197 35.753 53.1698 35.726C53.0609 35.6719 52.9657 35.6449 52.884 35.6449C52.6663 35.6449 52.5575 35.7666 52.5575 36.0099C52.5575 36.2532 52.7616 36.5506 53.1698 36.9021C53.6052 37.2535 54.3128 37.578 55.2925 37.8754C56.2722 38.1728 57.3744 38.3215 58.599 38.3215C59.8509 38.3215 60.9122 38.1187 61.7831 37.7132C62.6812 37.2806 63.1302 36.6723 63.1302 35.8882C63.1302 35.0772 62.7356 34.3337 61.9464 33.6578C61.1572 32.9548 60.1911 32.3195 59.0481 31.7517C57.9323 31.1569 56.8029 30.5486 55.6599 29.9268C54.5169 29.305 53.5508 28.5615 52.7616 27.6963C51.9724 26.8042 51.5778 25.8444 51.5778 24.817C51.5778 23.1137 52.367 21.7079 53.9454 20.5994C55.551 19.4909 58.0411 18.9367 61.4157 18.9367C63.9194 18.9367 65.7972 19.3558 67.049 20.1939C68.3009 21.0049 68.9268 22.0864 68.9268 23.4382C68.9268 24.4385 68.6139 25.2901 67.9879 25.9931C67.362 26.669 66.5592 27.0069 65.5795 27.0069C64.627 27.0069 63.8514 26.723 63.2527 26.1553C62.6539 25.5875 62.3546 24.8846 62.3546 24.0465C62.3546 23.1813 62.5995 22.4784 63.0894 21.9377C63.5792 21.397 64.1916 21.1266 64.9263 21.1266C65.6883 21.1266 66.2326 21.3294 66.5592 21.7349C66.913 22.1134 67.1715 22.3027 67.3348 22.3027C67.5797 22.3027 67.7022 22.181 67.7022 21.9377C67.7022 21.6944 67.5389 21.4105 67.2123 21.0861Z" fill="#F5F3F0"/>
<path d="M39.0985 20.3155H36.2002V19.6667H38.6495C41.6159 19.6667 44.3373 19.4098 46.8138 18.8961V37.6726H49.3447V38.3215H36.5676V37.6726H39.0985V20.3155Z" fill="#F5F3F0"/>
<path d="M42.9192 0.0555592C42.9296 -0.01852 43.0704 -0.0185196 43.0808 0.0555596C43.2636 1.36247 43.7918 4.26719 45.0082 5.67529C46.2555 7.11914 48.8622 7.72534 49.9462 7.92187C50.0179 7.93488 50.0179 8.06512 49.9462 8.07813C48.8622 8.27466 46.2555 8.88086 45.0082 10.3247C43.7918 11.7328 43.2636 14.6375 43.0808 15.9444C43.0704 16.0185 42.9296 16.0185 42.9192 15.9444C42.7364 14.6375 42.2082 11.7328 40.9918 10.3247C39.7445 8.88086 37.1378 8.27466 36.0538 8.07813C35.9821 8.06512 35.9821 7.93488 36.0538 7.92187C37.1378 7.72534 39.7445 7.11914 40.9918 5.67529C42.2082 4.26719 42.7364 1.36247 42.9192 0.0555592Z" fill="#F5F3F0"/>
<path d="M37.0632 75.1638C34.0152 75.1638 31.6748 73.7173 30.0419 70.8245C28.273 73.7173 26.0686 75.1638 23.4289 75.1638C21.7416 75.1638 20.2584 74.7177 18.9793 73.8255C17.7275 72.9333 16.7478 71.7032 16.0402 70.1351C14.6523 67.053 13.9583 63.2139 13.9583 58.6178V56.3873H11.06V55.7385H13.5093C16.6117 55.7385 19.4012 55.4816 21.8776 54.9679V56.7523C21.8776 61.6188 22.3131 65.3497 23.1839 67.9452C24.0548 70.5406 25.2386 71.8384 26.7354 71.8384C27.7423 71.8384 28.6676 71.1625 29.5112 69.8107C28.2322 66.9719 27.5926 63.2409 27.5926 58.6178V56.3873H24.6943V55.7385H27.1436C30.246 55.7385 33.0355 55.4816 35.512 54.9679V56.7523C35.512 61.6188 35.9474 65.3497 36.8183 67.9452C37.6891 70.5406 38.8729 71.8384 40.3697 71.8384C41.7032 71.8384 42.8462 70.7704 43.7987 68.6346C44.7512 66.4988 45.2275 64.4575 45.2275 62.511C45.2275 60.5644 44.9417 59.0368 44.3702 57.9284C43.7987 56.8199 43.0503 56.1305 42.125 55.8601C41.9073 55.806 41.7576 55.779 41.676 55.779C41.4039 55.779 41.2678 55.9007 41.2678 56.144C41.2678 56.3332 41.4447 56.4819 41.7985 56.5901C42.887 56.9416 43.4313 57.7121 43.4313 58.9017C43.4313 59.7127 43.1456 60.3751 42.5741 60.8888C42.0298 61.3754 41.3222 61.6188 40.4514 61.6188C39.6077 61.6188 38.8865 61.3214 38.2878 60.7266C37.6891 60.1048 37.3898 59.3072 37.3898 58.3339C37.3898 57.3606 37.7299 56.563 38.4103 55.9412C39.0906 55.2924 40.0568 54.9679 41.3086 54.9679C42.5605 54.9679 43.649 55.5898 44.5743 56.8334C45.5268 58.05 46.0031 59.8344 46.0031 62.1865C46.0031 65.4308 45.1594 68.4048 43.4721 71.1084C41.8121 73.812 39.6758 75.1638 37.0632 75.1638Z" fill="#F5F3F0"/>
<path d="M66.4871 72.4061C64.5004 74.2446 61.9015 75.1638 58.6902 75.1638C55.4789 75.1638 52.88 74.2446 50.8933 72.4061C48.9067 70.5406 47.9134 68.0939 47.9134 65.0658C47.9134 62.0378 48.9067 59.6046 50.8933 57.7661C52.88 55.9007 55.4789 54.9679 58.6902 54.9679C61.9015 54.9679 64.5004 55.9007 66.4871 57.7661C68.4737 59.6046 69.467 62.0378 69.467 65.0658C69.467 68.0939 68.4737 70.5406 66.4871 72.4061ZM60.6496 72.4061C61.0306 71.0273 61.2211 68.5805 61.2211 65.0658C61.2211 61.5512 61.0306 59.1179 60.6496 57.7661C60.2958 56.3873 59.6427 55.6979 58.6902 55.6979C57.7377 55.6979 57.071 56.3873 56.69 57.7661C56.3362 59.1179 56.1593 61.5512 56.1593 65.0658C56.1593 68.5805 56.3362 71.0273 56.69 72.4061C57.071 73.7579 57.7377 74.4338 58.6902 74.4338C59.6427 74.4338 60.2958 73.7579 60.6496 72.4061Z" fill="#F5F3F0"/>
<path d="M81.709 58.2528H81.9131C82.3485 57.2795 82.9608 56.4955 83.75 55.9007C84.5393 55.2788 85.4918 54.9679 86.6075 54.9679C87.7505 54.9679 88.7166 55.3464 89.5059 56.1034C90.3223 56.8334 90.7305 57.7256 90.7305 58.78C90.7305 59.8344 90.4175 60.7131 89.7916 61.416C89.1657 62.1189 88.3628 62.4704 87.3831 62.4704C86.4034 62.4704 85.6006 62.1865 84.9747 61.6188C84.376 61.051 84.0766 60.3481 84.0766 59.51C84.0766 58.6448 84.3215 57.9419 84.8114 57.4012C85.3285 56.8334 85.968 56.5495 86.73 56.5495C87.492 56.5495 88.1043 56.8199 88.567 57.3606C88.7847 57.7661 89.0024 57.9689 89.2201 57.9689C89.465 57.9689 89.5875 57.8473 89.5875 57.6039C89.5875 57.4417 89.5058 57.2389 89.3426 56.9956C88.6894 56.1305 87.7641 55.6979 86.5667 55.6979C83.2194 55.6979 81.5457 59.0233 81.5457 65.6742V73.7444H84.6073V74.3932H71.4628V73.7444H73.9937V56.3873H71.0954V55.7385H73.5447C76.5111 55.7385 79.2325 55.4816 81.709 54.9679V58.2528Z" fill="#F5F3F0"/>
<path d="M115.165 74.1499L115.981 74.1094L116.063 74.7177C113.124 75.0421 111.259 75.2043 110.47 75.2043C109.708 75.2043 108.933 75.0556 108.143 74.7582C107.381 74.4338 106.783 74.0418 106.347 73.5822C105.939 73.0955 105.626 72.4602 105.408 71.6761C105.055 70.5677 104.878 68.959 104.878 66.8502C104.878 64.7144 104.265 63.6194 103.041 63.5654C102.496 63.6194 101.87 63.6735 101.163 63.7276V73.7444H103.939V74.3932H90.7534V73.7444H93.4477V47.0194H90.5493V46.3705H92.9986C95.965 46.3705 98.6864 46.1137 101.163 45.6V62.957C104.048 62.7408 106.361 62.1865 108.103 61.2943C109.871 60.3751 110.756 59.0909 110.756 57.4417C110.756 56.2521 110.32 55.3329 109.45 54.6841C109.205 54.5218 109.001 54.4407 108.837 54.4407C108.592 54.4407 108.47 54.5624 108.47 54.8057C108.47 54.9409 108.552 55.0761 108.715 55.2113C108.905 55.3464 109.028 55.4275 109.082 55.4546C109.627 55.9142 109.899 56.5225 109.899 57.2795C109.899 58.0365 109.627 58.6583 109.082 59.145C108.538 59.6316 107.83 59.875 106.96 59.875C106.116 59.875 105.395 59.5776 104.796 58.9828C104.224 58.3609 103.939 57.5634 103.939 56.5901C103.939 55.6168 104.293 54.8327 105 54.238C105.708 53.6161 106.592 53.3052 107.653 53.3052C108.715 53.3052 109.613 53.7108 110.348 54.5218C111.11 55.3059 111.491 56.2927 111.491 57.4823C111.491 59.6722 110.076 61.3349 107.245 62.4704L107.286 62.6326C108.865 62.6326 110.171 63.0382 111.205 63.8492C111.668 64.2007 112.076 64.7549 112.43 65.5119C112.783 66.2689 112.96 67.3098 112.96 68.6346C112.96 69.9594 113.069 71.0813 113.287 72.0006C113.505 72.9198 113.749 73.5146 114.022 73.7849C114.321 74.0283 114.702 74.1499 115.165 74.1499Z" fill="#F5F3F0"/>
</svg>
